<svg width="34" height="34" viewBox="0 0 34 34" fill="none" xmlns="http://www.w3.org/2000/svg">
<rect x="0.5" y="0.5" width="33" height="33" rx="9.5" stroke="#C9C2D4"/>
<path d="M10.25 12.5H11.75H23.75" stroke="#D31F1F" stroke-width="1.5" stroke-linecap="round" stroke-linejoin="round"/>
<path d="M23 12.5C23 12.0858 22.6642 11.75 22.25 11.75C21.8358 11.75 21.5 12.0858 21.5 12.5H23ZM12.5 12.5C12.5 12.0858 12.1642 11.75 11.75 11.75C11.3358 11.75 11 12.0858 11 12.5H12.5ZM13.25 12.5C13.25 12.9142 13.5858 13.25 14 13.25C14.4142 13.25 14.75 12.9142 14.75 12.5H13.25ZM19.25 12.5C19.25 12.9142 19.5858 13.25 20 13.25C20.4142 13.25 20.75 12.9142 20.75 12.5H19.25ZM21.5 12.5V23H23V12.5H21.5ZM21.5 23C21.5 23.4142 21.1642 23.75 20.75 23.75V25.25C21.9926 25.25 23 24.2426 23 23H21.5ZM20.75 23.75H13.25V25.25H20.75V23.75ZM13.25 23.75C12.8358 23.75 12.5 23.4142 12.5 23H11C11 24.2426 12.0074 25.25 13.25 25.25V23.75ZM12.5 23V12.5H11V23H12.5ZM14.75 12.5V11H13.25V12.5H14.75ZM14.75 11C14.75 10.5858 15.0858 10.25 15.5 10.25V8.75C14.2574 8.75 13.25 9.75736 13.25 11H14.75ZM15.5 10.25H18.5V8.75H15.5V10.25ZM18.5 10.25C18.9142 10.25 19.25 10.5858 19.25 11H20.75C20.75 9.75736 19.7426 8.75 18.5 8.75V10.25ZM19.25 11V12.5H20.75V11H19.25Z" fill="#D31F1F"/>
<path d="M15.5 16.25V20.75" stroke="#D31F1F" stroke-width="1.5" stroke-linecap="round" stroke-linejoin="round"/>
<path d="M18.5 16.25V20.75" stroke="#D31F1F" stroke-width="1.5" stroke-linecap="round" stroke-linejoin="round"/>
</svg>
