<svg width="64" height="34" viewBox="0 0 64 34" fill="none" xmlns="http://www.w3.org/2000/svg">
<path d="M38.031 21.6168L42.3137 25.8995L40.8995 27.3137L36.6168 23.031C35.0769 24.263 33.124 25 31 25C26.032 25 22 20.968 22 16C22 11.032 26.032 7 31 7C35.968 7 40 11.032 40 16C40 18.124 39.263 20.0769 38.031 21.6168ZM36.0247 20.8748C37.2475 19.6146 38 17.8956 38 16C38 12.1325 34.8675 9 31 9C27.1325 9 24 12.1325 24 16C24 19.8675 27.1325 23 31 23C32.8956 23 34.6146 22.2475 35.8748 21.0247L36.0247 20.8748Z" fill="#693EAC"/>
</svg>
