<svg width="34" height="34" viewBox="0 0 34 34" fill="none" xmlns="http://www.w3.org/2000/svg">
<rect x="0.5" y="0.5" width="33" height="33" rx="9.5" stroke="#C9C2D4"/>
<path d="M23.75 23.75H17.75M9.875 24.125L14.037 22.5242C14.3032 22.4218 14.4363 22.3707 14.5608 22.3038C14.6714 22.2444 14.7768 22.1759 14.876 22.0989C14.9877 22.0123 15.0885 21.9115 15.2902 21.7098L23.75 13.25C24.5784 12.4216 24.5784 11.0784 23.75 10.25C22.9216 9.42156 21.5784 9.42156 20.75 10.25L12.2902 18.7098C12.0885 18.9115 11.9877 19.0123 11.901 19.124C11.8241 19.2231 11.7556 19.3286 11.6962 19.4392C11.6293 19.5637 11.5781 19.6968 11.4757 19.963L9.875 24.125ZM9.875 24.125L11.4186 20.1117C11.529 19.8245 11.5843 19.6809 11.679 19.6151C11.7618 19.5577 11.8642 19.5359 11.9632 19.5548C12.0765 19.5765 12.1853 19.6853 12.4029 19.9028L14.0972 21.5971C14.3148 21.8147 14.4235 21.9235 14.4452 22.0368C14.4641 22.1358 14.4423 22.2382 14.3849 22.321C14.3191 22.4157 14.1755 22.471 13.8883 22.5814L9.875 24.125Z" stroke="#693EAC" stroke-width="1.5" stroke-linecap="round" stroke-linejoin="round"/>
</svg>
