<svg width="154" height="61" viewBox="0 0 154 61" fill="none" xmlns="http://www.w3.org/2000/svg">
<path d="M28.197 9.49013V9.17462C28.197 8.91708 28.0027 8.70813 27.7631 8.70813H2.16681C1.92725 8.70813 1.73291 8.91708 1.73291 9.17462V43.1029V43.6937V47.9229L2.35332 48.9223C3.7037 50.2241 6.10056 52.2919 6.10056 52.2919L12.7938 46.918H31.4021V12.5746L28.197 9.49013Z" fill="#D8BFFF"/>
<path d="M5.71021 52.2228L6.53017 52.9487C6.60843 53.015 6.71799 53.0174 6.79842 52.9538L12.8551 48.1674H31.8343C32.0004 48.1674 32.1348 48.023 32.1348 47.8444V11.9937C32.1348 11.8497 32.0269 11.7328 31.8935 11.731L30.2096 11.7113V47.0863H12.0608L5.71021 52.2228Z" fill="#D8BFFF"/>
<path d="M2.19482 49.0546C3.5452 50.3563 5.94206 52.4242 5.94206 52.4242L12.6353 47.0503H30.9432C31.1093 47.0503 31.2436 46.9058 31.2436 46.7273V12.8242C31.2436 12.7495 31.214 12.6784 31.1623 12.6289L28.039 9.62288V43.5035C28.039 43.682 27.9046 43.8265 27.7385 43.8265H9.43061L3.19087 48.9181C2.88001 49.1714 2.50525 49.1943 2.19482 49.0546Z" fill="white"/>
<path d="M27.4641 8H1V42.3947V42.9856V47.2148C1 48.1104 1.953 48.6189 2.61646 48.0777L8.85619 42.986H27.4645L27.4641 8Z" stroke="#736896" stroke-miterlimit="10" stroke-linecap="round" stroke-linejoin="round"/>
<path d="M20 39L12 31.6224L4 39V8H20V39Z" fill="#736896"/>
<path d="M1.62071 48.2142C2.97109 49.5159 5.36794 51.5838 5.36794 51.5838L12.0611 46.2098H30.6695V11.866L27.4648 8.782V8H1.00073V42.3947V42.9856V47.2148" stroke="#736896" stroke-miterlimit="10" stroke-linecap="round" stroke-linejoin="round"/>
<path d="M27.4641 42.9856L30.6688 46.2099" stroke="#736896" stroke-miterlimit="10" stroke-linecap="round" stroke-linejoin="round"/>
<path d="M28.6011 23.3478V11.2243" stroke="#736896" stroke-miterlimit="10" stroke-linecap="round"/>
<path d="M11.6992 44.5977H24.673" stroke="#736896" stroke-miterlimit="10" stroke-linecap="round" stroke-linejoin="round"/>
<path d="M29.635 10.8714L31.5606 10.8938V47.3274H12.2809L6.08642 52.2227L5.28906 51.5263" stroke="#736896" stroke-miterlimit="10" stroke-linecap="round" stroke-linejoin="round"/>
<path d="M10.8674 24V21.0211L9.81077 23.1901H9.18923L8.1326 21.0211V24H7V19H8.22928L9.5 21.6127L10.7776 19H12V24H10.8674Z" fill="white"/>
<path d="M13 21.4514C13 21.1505 13.0618 20.8565 13.1855 20.5694C13.3091 20.2778 13.4894 20.0139 13.7264 19.7778C13.9634 19.5417 14.2519 19.3542 14.592 19.2153C14.932 19.0718 15.3184 19 15.7512 19C16.2664 19 16.712 19.0995 17.0881 19.2986C17.4693 19.4977 17.7527 19.7569 17.9382 20.0764L16.9645 20.6875C16.882 20.5116 16.7713 20.375 16.6321 20.2778C16.4982 20.1806 16.3488 20.1134 16.1839 20.0764C16.0242 20.0347 15.8697 20.0139 15.7202 20.0139C15.4781 20.0139 15.2669 20.0579 15.0866 20.1458C14.9062 20.2292 14.7568 20.3426 14.6383 20.4861C14.5198 20.6296 14.4323 20.7894 14.3756 20.9653C14.3189 21.1412 14.2906 21.3171 14.2906 21.4931C14.2906 21.6875 14.3241 21.875 14.391 22.0556C14.458 22.2361 14.5533 22.3958 14.677 22.5347C14.8058 22.6736 14.9603 22.7847 15.1406 22.8681C15.321 22.9468 15.5193 22.9861 15.7357 22.9861C15.8903 22.9861 16.0474 22.963 16.2071 22.9167C16.3668 22.8704 16.5137 22.7986 16.6476 22.7014C16.7867 22.5995 16.8923 22.4676 16.9645 22.3056L18 22.8542C17.8918 23.0949 17.7141 23.3009 17.4668 23.4722C17.2195 23.6435 16.9387 23.7755 16.6244 23.8681C16.3153 23.956 16.0088 24 15.7048 24C15.3081 24 14.9423 23.9282 14.6074 23.7847C14.2777 23.6366 13.9918 23.4421 13.7496 23.2014C13.5126 22.956 13.3272 22.6829 13.1932 22.3819C13.0644 22.0764 13 21.7662 13 21.4514Z" fill="white"/>
<path d="M113.581 47V34.22H116.515V39.17H117.523L121.087 34.22H124.363L119.791 40.394L124.759 47H121.177L117.433 41.852H116.515V47H113.581Z" fill="#544A73"/>
<path d="M105.449 47.108C104.489 47.108 103.619 46.928 102.839 46.568C102.071 46.196 101.405 45.704 100.841 45.092C100.289 44.468 99.863 43.772 99.563 43.004C99.263 42.224 99.113 41.42 99.113 40.592C99.113 39.74 99.269 38.93 99.581 38.162C99.905 37.394 100.349 36.71 100.913 36.11C101.489 35.498 102.167 35.018 102.947 34.67C103.727 34.322 104.579 34.148 105.503 34.148C106.451 34.148 107.309 34.334 108.077 34.706C108.857 35.066 109.523 35.558 110.075 36.182C110.639 36.806 111.071 37.508 111.371 38.288C111.671 39.056 111.821 39.842 111.821 40.646C111.821 41.498 111.665 42.308 111.353 43.076C111.041 43.844 110.597 44.534 110.021 45.146C109.445 45.746 108.767 46.226 107.987 46.586C107.219 46.934 106.373 47.108 105.449 47.108ZM102.119 40.628C102.119 41.12 102.191 41.6 102.335 42.068C102.479 42.524 102.689 42.932 102.965 43.292C103.253 43.652 103.607 43.94 104.027 44.156C104.447 44.372 104.927 44.48 105.467 44.48C106.031 44.48 106.523 44.372 106.943 44.156C107.363 43.928 107.711 43.628 107.987 43.256C108.263 42.884 108.467 42.47 108.599 42.014C108.743 41.546 108.815 41.072 108.815 40.592C108.815 40.1 108.743 39.626 108.599 39.17C108.455 38.714 108.239 38.306 107.951 37.946C107.663 37.574 107.309 37.286 106.889 37.082C106.469 36.878 105.995 36.776 105.467 36.776C104.903 36.776 104.411 36.884 103.991 37.1C103.583 37.316 103.235 37.61 102.947 37.982C102.671 38.342 102.461 38.756 102.317 39.224C102.185 39.68 102.119 40.148 102.119 40.628Z" fill="#544A73"/>
<path d="M86.8962 40.502C86.8962 39.722 87.0402 38.96 87.3282 38.216C87.6162 37.46 88.0362 36.776 88.5882 36.164C89.1402 35.552 89.8122 35.066 90.6042 34.706C91.3962 34.334 92.2962 34.148 93.3042 34.148C94.5042 34.148 95.5422 34.406 96.4182 34.922C97.3062 35.438 97.9662 36.11 98.3982 36.938L96.1302 38.522C95.9382 38.066 95.6802 37.712 95.3562 37.46C95.0442 37.208 94.6962 37.034 94.3122 36.938C93.9402 36.83 93.5802 36.776 93.2322 36.776C92.6682 36.776 92.1762 36.89 91.7562 37.118C91.3362 37.334 90.9882 37.628 90.7122 38C90.4362 38.372 90.2322 38.786 90.1002 39.242C89.9682 39.698 89.9022 40.154 89.9022 40.61C89.9022 41.114 89.9802 41.6 90.1362 42.068C90.2922 42.536 90.5142 42.95 90.8022 43.31C91.1022 43.67 91.4622 43.958 91.8822 44.174C92.3022 44.378 92.7642 44.48 93.2682 44.48C93.6282 44.48 93.9942 44.42 94.3662 44.3C94.7382 44.18 95.0802 43.994 95.3922 43.742C95.7162 43.478 95.9622 43.136 96.1302 42.716L98.5422 44.138C98.2902 44.762 97.8762 45.296 97.3002 45.74C96.7242 46.184 96.0702 46.526 95.3382 46.766C94.6182 46.994 93.9042 47.108 93.1962 47.108C92.2722 47.108 91.4202 46.922 90.6402 46.55C89.8722 46.166 89.2062 45.662 88.6422 45.038C88.0902 44.402 87.6582 43.694 87.3462 42.914C87.0462 42.122 86.8962 41.318 86.8962 40.502Z" fill="#544A73"/>
<path d="M73.8899 47V34.22H76.8419V42.806L82.3499 34.22H85.1039V47H82.1519V38.468L76.7159 47H73.8899Z" fill="#544A73"/>
<path d="M60.6707 47V34.22H71.3087V47H68.3567V36.812H63.6227V47H60.6707Z" fill="#544A73"/>
<path d="M47.4861 40.502C47.4861 39.722 47.6301 38.96 47.9181 38.216C48.2061 37.46 48.6261 36.776 49.1781 36.164C49.7301 35.552 50.4021 35.066 51.1941 34.706C51.9861 34.334 52.8861 34.148 53.8941 34.148C55.0941 34.148 56.1321 34.406 57.0081 34.922C57.8961 35.438 58.5561 36.11 58.9881 36.938L56.7201 38.522C56.5281 38.066 56.2701 37.712 55.9461 37.46C55.6341 37.208 55.2861 37.034 54.9021 36.938C54.5301 36.83 54.1701 36.776 53.8221 36.776C53.2581 36.776 52.7661 36.89 52.3461 37.118C51.9261 37.334 51.5781 37.628 51.3021 38C51.0261 38.372 50.8221 38.786 50.6901 39.242C50.5581 39.698 50.4921 40.154 50.4921 40.61C50.4921 41.114 50.5701 41.6 50.7261 42.068C50.8821 42.536 51.1041 42.95 51.3921 43.31C51.6921 43.67 52.0521 43.958 52.4721 44.174C52.8921 44.378 53.3541 44.48 53.8581 44.48C54.2181 44.48 54.5841 44.42 54.9561 44.3C55.3281 44.18 55.6701 43.994 55.9821 43.742C56.3061 43.478 56.5521 43.136 56.7201 42.716L59.1321 44.138C58.8801 44.762 58.4661 45.296 57.8901 45.74C57.3141 46.184 56.6601 46.526 55.9281 46.766C55.2081 46.994 54.4941 47.108 53.7861 47.108C52.8621 47.108 52.0101 46.922 51.2301 46.55C50.4621 46.166 49.7961 45.662 49.2321 45.038C48.6801 44.402 48.2481 43.694 47.9361 42.914C47.6361 42.122 47.4861 41.318 47.4861 40.502Z" fill="#544A73"/>
<path d="M77.4583 26V13.22H80.4103V21.806L85.9183 13.22H88.6723V26H85.7203V17.468L80.2843 26H77.4583ZM83.0743 12.536C82.3663 12.536 81.7363 12.416 81.1843 12.176C80.6443 11.924 80.2243 11.588 79.9243 11.168C79.6243 10.736 79.4743 10.25 79.4743 9.70999H81.4363C81.4363 10.07 81.5743 10.394 81.8503 10.682C82.1263 10.958 82.5343 11.096 83.0743 11.096C83.6143 11.096 84.0223 10.964 84.2983 10.7C84.5863 10.436 84.7303 10.106 84.7303 9.70999H86.6923C86.6923 10.25 86.5423 10.736 86.2423 11.168C85.9423 11.588 85.5163 11.924 84.9643 12.176C84.4243 12.416 83.7943 12.536 83.0743 12.536Z" fill="#544A73"/>
<path d="M69.3084 26.108C68.3484 26.108 67.4784 25.928 66.6984 25.568C65.9304 25.196 65.2644 24.704 64.7004 24.092C64.1484 23.468 63.7224 22.772 63.4224 22.004C63.1224 21.224 62.9724 20.42 62.9724 19.592C62.9724 18.74 63.1284 17.93 63.4404 17.162C63.7644 16.394 64.2084 15.71 64.7724 15.11C65.3484 14.498 66.0264 14.018 66.8064 13.67C67.5864 13.322 68.4384 13.148 69.3624 13.148C70.3104 13.148 71.1684 13.334 71.9364 13.706C72.7164 14.066 73.3824 14.558 73.9344 15.182C74.4984 15.806 74.9304 16.508 75.2304 17.288C75.5304 18.056 75.6804 18.842 75.6804 19.646C75.6804 20.498 75.5244 21.308 75.2124 22.076C74.9004 22.844 74.4564 23.534 73.8804 24.146C73.3044 24.746 72.6264 25.226 71.8464 25.586C71.0784 25.934 70.2324 26.108 69.3084 26.108ZM65.9784 19.628C65.9784 20.12 66.0504 20.6 66.1944 21.068C66.3384 21.524 66.5484 21.932 66.8244 22.292C67.1124 22.652 67.4664 22.94 67.8864 23.156C68.3064 23.372 68.7864 23.48 69.3264 23.48C69.8904 23.48 70.3824 23.372 70.8024 23.156C71.2224 22.928 71.5704 22.628 71.8464 22.256C72.1224 21.884 72.3264 21.47 72.4584 21.014C72.6024 20.546 72.6744 20.072 72.6744 19.592C72.6744 19.1 72.6024 18.626 72.4584 18.17C72.3144 17.714 72.0984 17.306 71.8104 16.946C71.5224 16.574 71.1684 16.286 70.7484 16.082C70.3284 15.878 69.8544 15.776 69.3264 15.776C68.7624 15.776 68.2704 15.884 67.8504 16.1C67.4424 16.316 67.0944 16.61 66.8064 16.982C66.5304 17.342 66.3204 17.756 66.1764 18.224C66.0444 18.68 65.9784 19.148 65.9784 19.628Z" fill="#544A73"/>
<path d="M58.3041 26V18.386L55.5501 23.93H53.9301L51.1761 18.386V26H48.2241V13.22H51.4281L54.7401 19.898L58.0701 13.22H61.2561V26H58.3041Z" fill="#544A73"/>
</svg>
